<?xml version="1.0" encoding="utf-8"?>
<!-- Generator: Adobe Illustrator 26.0.1, SVG Export Plug-In . SVG Version: 6.00 Build 0)  -->
<svg version="1.1" id="レイヤー_1" xmlns="http://www.w3.org/2000/svg" xmlns:xlink="http://www.w3.org/1999/xlink" x="0px"
	 y="0px" viewBox="0 0 500 117" style="enable-background:new 0 0 500 117;" xml:space="preserve">
<style type="text/css">
	.st0{fill:#FFFFFF;}
</style>
<g>
	<path id="パス_23" class="st0" d="M0.96,115.65c-0.46,0.07-0.88-0.25-0.95-0.71c-0.01-0.08-0.01-0.16,0-0.24V0.96
		C-0.06,0.5,0.26,0.08,0.72,0.01C0.8,0,0.88,0,0.96,0.01h16.35c0.33,0.01,0.63,0.19,0.79,0.47l50,78.74V0.96
		c-0.06-0.46,0.26-0.89,0.72-0.95c0.08-0.01,0.16-0.01,0.23,0h17.31c0.46-0.07,0.89,0.25,0.95,0.7c0.01,0.08,0.01,0.16,0,0.25V114.7
		c0.07,0.46-0.25,0.88-0.71,0.95c-0.08,0.01-0.16,0.01-0.25,0H70.09c-0.33-0.01-0.63-0.19-0.79-0.48L19.15,36.44v78.26
		c0,0.63-0.29,0.95-0.88,0.95L0.96,115.65z"/>
	<path id="パス_24" class="st0" d="M162.3,80.57c0.07,0.46-0.26,0.89-0.72,0.95c-0.08,0.01-0.16,0.01-0.23,0h-49.13
		c-0.2,4.91,1.6,9.7,5,13.25c3.64,3.24,8.39,4.94,13.26,4.77c6.45-0.04,12.59-2.74,16.98-7.46c0.13-0.17,0.34-0.28,0.56-0.28
		c0.25-0.03,0.51,0.04,0.71,0.19l11.75,10c0.21,0.14,0.32,0.38,0.32,0.63c0.01,0.26-0.08,0.51-0.24,0.71
		c-3.72,4.47-8.48,7.97-13.85,10.2c-5.09,2.03-10.52,3.07-15.99,3.06c-8.83-0.1-17.4-2.96-24.52-8.17
		c-8.04-5.5-12.07-16.72-12.07-33.66c0-15.98,3.68-27.04,11.03-33.17c6.37-5.7,14.56-8.96,23.1-9.21c8.87-0.09,17.41,3.3,23.81,9.44
		c6.93,6.59,10.66,15.85,10.24,25.4L162.3,80.57z M144.2,66.37c-0.02-4.65-1.78-9.12-4.92-12.54c-2.94-2.87-6.92-4.42-11.03-4.29
		c-4.23-0.15-8.34,1.46-11.35,4.44c-1.45,1.49-2.56,3.28-3.26,5.24c-0.83,2.3-1.31,4.7-1.43,7.14H144.2z"/>
	<path id="パス_25" class="st0" d="M193.57,73.59c-4.28-6.46-8.59-12.92-12.94-19.41c-4.34-6.48-8.68-12.95-13.02-19.41
		c-0.26-0.28-0.3-0.7-0.12-1.03c0.19-0.32,0.54-0.5,0.91-0.47h19.37c0.33,0.01,0.63,0.19,0.79,0.47l15.24,24.77
		c2.54-4.13,5.09-8.26,7.66-12.38c2.57-4.13,5.12-8.25,7.66-12.38c0.16-0.29,0.46-0.47,0.79-0.47h19.37
		c0.37-0.03,0.72,0.15,0.91,0.47c0.19,0.33,0.14,0.75-0.12,1.03l-26.03,38.81c4.55,6.77,9.08,13.53,13.57,20.28
		c4.5,6.75,8.99,13.51,13.49,20.28c0.33,0.38,0.29,0.95-0.08,1.29c-0.17,0.15-0.4,0.23-0.63,0.23h-19.45
		c-0.32,0.03-0.62-0.17-0.72-0.48l-16.43-25.4c-2.7,4.29-5.41,8.52-8.13,12.7c-2.72,4.18-5.46,8.41-8.22,12.7
		c-0.16,0.29-0.46,0.47-0.79,0.48H167.3c-0.36,0.03-0.71-0.16-0.87-0.48c-0.16-0.33-0.13-0.73,0.08-1.03L193.57,73.59z"/>
	<path id="パス_26" class="st0" d="M256.21,115.73c-0.46,0.07-0.88-0.25-0.95-0.71c-0.01-0.08-0.01-0.16,0-0.25V47.55h-7.14
		c-0.46,0.07-0.89-0.25-0.96-0.72c-0.01-0.08-0.01-0.16,0-0.24V34.22c-0.07-0.46,0.25-0.89,0.72-0.96c0.08-0.01,0.16-0.01,0.24,0
		h7.16V21.2L271.7,3.65c0.27-0.31,0.7-0.4,1.07-0.23c0.37,0.12,0.62,0.48,0.59,0.87v28.97h10.79c0.46-0.07,0.88,0.25,0.95,0.71
		c0.01,0.08,0.01,0.16,0,0.25v12.38c0.07,0.46-0.25,0.89-0.7,0.95c-0.08,0.01-0.16,0.01-0.25,0h-10.81v67.22
		c0.07,0.46-0.25,0.89-0.72,0.96c-0.08,0.01-0.16,0.01-0.24,0H256.21z"/>
	<path id="パス_27" class="st0" d="M294.12,115.65c-0.46,0.07-0.89-0.25-0.95-0.7c-0.01-0.08-0.01-0.16,0-0.25V98.59
		c-0.07-0.46,0.25-0.88,0.71-0.95c0.08-0.01,0.16-0.01,0.25,0h16.18c0.58,0,0.88,0.32,0.88,0.95v16.11c0,0.63-0.29,0.95-0.88,0.95
		H294.12z"/>
	<path id="パス_28" class="st0" d="M390.31,83.81h18.23c-1.63,9.62-6.76,18.3-14.4,24.38c-7.37,5.61-16.41,8.57-25.67,8.41
		c-8.02,0.28-15.92-1.98-22.58-6.46c-5.4-3.57-9.89-8.35-13.11-13.97c-1.9-3.41-3.21-7.11-3.89-10.96
		c-0.98-8.81-1.35-17.67-1.11-26.53c-0.24-8.86,0.13-17.72,1.11-26.53c0.68-3.84,1.99-7.55,3.89-10.96
		c3.25-5.6,7.73-10.39,13.11-14.01c15.41-9.89,35.48-8.51,49.38,3.41c6.88,6.3,11.53,14.66,13.27,23.83h-18.23
		c-1.49-4.5-4.21-8.49-7.87-11.51c-3.89-3.31-8.86-5.06-13.97-4.93c-3.68-0.09-7.31,0.77-10.56,2.51c-2.71,1.45-5.1,3.41-7.04,5.79
		c-2.21,2.84-3.77,6.12-4.58,9.63c-1.07,7.54-1.48,15.16-1.21,22.78c-0.27,7.64,0.14,15.28,1.21,22.85
		c0.79,3.45,2.36,6.68,4.58,9.44c1.9,2.46,4.3,4.48,7.04,5.93c3.25,1.71,6.88,2.56,10.56,2.47c9.81-0.12,18.51-6.32,21.83-15.56"/>
	<path id="パス_29" class="st0" d="M420.67,115.66V1.64h41.4c4.3-0.01,8.59,0.46,12.78,1.41c4.69,1.24,9.05,3.48,12.78,6.57
		c3.7,2.97,6.69,6.73,8.77,10.99c2.49,5.05,3.72,10.62,3.6,16.24c-0.17,8.59-3.4,16.83-9.12,23.24
		c-6.69,7.63-16.55,11.71-26.67,11.03h-26.3v44.53H420.67z M437.97,18v36.78h25.67c5.43,0.41,10.74-1.73,14.36-5.79
		c3.02-3.51,4.7-7.97,4.73-12.6c0.43-6.03-2.41-11.82-7.43-15.18c-3.68-2.28-7.96-3.4-12.29-3.21H437.97z"/>
</g>
</svg>
